<svg width="32" height="32" viewBox="0 0 32 32" fill="none" xmlns="http://www.w3.org/2000/svg" xmlns:xlink="http://www.w3.org/1999/xlink">
<path d="M16,27.833C9.468,27.833 4.167,22.531 4.167,16L1.167,16C1.167,24.188 7.812,30.833 16,30.833L16,27.833ZM4.167,16C4.167,9.468 9.468,4.167 16,4.167L16,1.167C7.812,1.167 1.167,7.811 1.167,16L4.167,16ZM16,4.167C22.532,4.167 27.833,9.468 27.833,16L30.833,16C30.833,7.811 24.188,1.167 16,1.167L16,4.167ZM27.833,16C27.833,22.531 22.532,27.833 16,27.833L16,30.833C24.188,30.833 30.833,24.188 30.833,16L27.833,16Z" fill="#024089"/>
<path d="M20.832,21.125C21.453,20.577 21.513,19.629 20.965,19.008C20.417,18.386 19.469,18.327 18.848,18.875L20.832,21.125ZM16.32,21.333L16.32,22.833L16.322,22.833L16.32,21.333ZM16.32,10.667L16.322,9.167L16.32,9.167L16.32,10.667ZM18.848,13.125C19.469,13.673 20.417,13.613 20.965,12.992C21.513,12.371 21.453,11.423 20.832,10.875L18.848,13.125ZM18.848,18.875C18.149,19.491 17.25,19.832 16.318,19.833L16.322,22.833C17.983,22.831 19.586,22.223 20.832,21.125L18.848,18.875ZM16.32,19.833C14.202,19.833 12.487,18.118 12.487,16L9.487,16C9.487,19.775 12.545,22.833 16.32,22.833L16.32,19.833ZM12.487,16C12.487,13.882 14.202,12.167 16.32,12.167L16.32,9.167C12.545,9.167 9.487,12.225 9.487,16L12.487,16ZM16.318,12.167C17.25,12.168 18.149,12.509 18.848,13.125L20.832,10.875C19.586,9.776 17.983,9.169 16.322,9.167L16.318,12.167Z" fill="#024089"/>
</svg>
