<svg width="28" height="28" viewBox="0 0 28 28" fill="none" xmlns="http://www.w3.org/2000/svg" xmlns:xlink="http://www.w3.org/1999/xlink">
<path d="M19.587,0.667L8.413,0.667C3.56,0.667 0.667,3.56 0.667,8.413L0.667,19.573C0.667,24.44 3.56,27.333 8.413,27.333L19.573,27.333C24.427,27.333 27.32,24.44 27.32,19.587L27.32,8.413C27.333,3.56 24.44,0.667 19.587,0.667ZM14,19.173C11.147,19.173 8.827,16.853 8.827,14C8.827,11.147 11.147,8.827 14,8.827C16.853,8.827 19.173,11.147 19.173,14C19.173,16.853 16.853,19.173 14,19.173ZM21.893,7.173C21.827,7.333 21.733,7.48 21.613,7.613C21.48,7.733 21.333,7.827 21.173,7.893C20.931,7.996 20.663,8.025 20.404,7.975C20.145,7.925 19.907,7.799 19.72,7.613C19.6,7.48 19.507,7.333 19.44,7.173C19.372,7.013 19.335,6.841 19.333,6.667C19.333,6.493 19.373,6.32 19.44,6.16C19.507,5.987 19.6,5.853 19.72,5.72C20.027,5.413 20.493,5.267 20.92,5.36C21.013,5.373 21.093,5.4 21.173,5.44C21.253,5.467 21.333,5.507 21.413,5.56C21.48,5.6 21.547,5.667 21.613,5.72C21.733,5.853 21.827,5.987 21.893,6.16C21.96,6.32 22,6.493 22,6.667C22,6.84 21.96,7.013 21.893,7.173Z" fill="#024089"/>
</svg>
