<svg width="40" height="34" viewBox="0 0 40 34" fill="none" xmlns="http://www.w3.org/2000/svg" xmlns:xlink="http://www.w3.org/1999/xlink">
<path d="M30,-1L10,-1C4,-1 0,2 0,9L0,23C0,30 4,33 10,33L30,33C36,33 40,30 40,23L40,9C40,2 36,-1 30,-1ZM30.94,11.18L24.68,16.18C23.36,17.24 21.68,17.76 20,17.76C18.32,17.76 16.62,17.24 15.32,16.18L9.06,11.18C8.754,10.926 8.558,10.563 8.513,10.168C8.469,9.773 8.579,9.376 8.82,9.06C9.34,8.42 10.28,8.3 10.92,8.82L17.18,13.82C18.7,15.04 21.28,15.04 22.8,13.82L29.06,8.82C29.7,8.3 30.66,8.4 31.16,9.06C31.68,9.7 31.58,10.66 30.94,11.18Z" fill="#024089"/>
</svg>
