<svg width="26" height="20" viewBox="0 0 26 20" fill="none" xmlns="http://www.w3.org/2000/svg" xmlns:xlink="http://www.w3.org/1999/xlink">
<path d="M16.301,0.846C15.715,0.26 14.765,0.26 14.179,0.846C13.594,1.432 13.594,2.382 14.179,2.967L16.301,0.846ZM23.333,10L24.394,11.061C24.98,10.475 24.98,9.525 24.394,8.939L23.333,10ZM14.179,17.033C13.594,17.619 13.594,18.568 14.179,19.154C14.765,19.74 15.715,19.74 16.301,19.154L14.179,17.033ZM0.667,8.5C-0.162,8.5 -0.833,9.172 -0.833,10C-0.833,10.828 -0.162,11.5 0.667,11.5L0.667,8.5ZM23.107,11.5C23.935,11.5 24.607,10.828 24.607,10C24.607,9.172 23.935,8.5 23.107,8.5L23.107,11.5ZM14.179,2.967L22.273,11.061L24.394,8.939L16.301,0.846L14.179,2.967ZM22.273,8.939L14.179,17.033L16.301,19.154L24.394,11.061L22.273,8.939ZM0.667,11.5L23.107,11.5L23.107,8.5L0.667,8.5L0.667,11.5Z" fill="#FFFFFF"/>
</svg>
