<svg width="28" height="28" viewBox="0 0 28 28" fill="none" xmlns="http://www.w3.org/2000/svg" xmlns:xlink="http://www.w3.org/1999/xlink">
<path d="M27.333,19.587C27.333,24.44 24.44,27.333 19.587,27.333L18,27.333C17.267,27.333 16.667,26.733 16.667,26L16.667,18.307C16.667,17.947 16.96,17.64 17.32,17.64L19.667,17.6C19.853,17.587 20.013,17.453 20.053,17.267L20.52,14.72C20.529,14.662 20.526,14.603 20.51,14.547C20.494,14.491 20.466,14.439 20.428,14.394C20.39,14.35 20.342,14.314 20.289,14.29C20.236,14.266 20.178,14.253 20.12,14.253L17.28,14.293C16.907,14.293 16.613,14 16.6,13.64L16.547,10.373C16.547,10.16 16.72,9.973 16.947,9.973L20.147,9.92C20.373,9.92 20.547,9.747 20.547,9.52L20.493,6.32C20.493,6.093 20.32,5.92 20.093,5.92L16.493,5.973C15.968,5.981 15.449,6.093 14.967,6.302C14.484,6.51 14.048,6.812 13.683,7.19C13.317,7.568 13.03,8.014 12.837,8.503C12.645,8.992 12.55,9.514 12.56,10.04L12.627,13.707C12.64,14.08 12.347,14.373 11.973,14.387L10.373,14.413C10.147,14.413 9.973,14.587 9.973,14.813L10.013,17.347C10.013,17.573 10.187,17.747 10.413,17.747L12.013,17.72C12.387,17.72 12.68,18.013 12.693,18.373L12.813,25.973C12.827,26.72 12.227,27.333 11.48,27.333L8.413,27.333C3.56,27.333 0.667,24.44 0.667,19.573L0.667,8.413C0.667,3.56 3.56,0.667 8.413,0.667L19.587,0.667C24.44,0.667 27.333,3.56 27.333,8.413L27.333,19.587Z" fill="#024089"/>
</svg>
