<svg width="36" height="42" viewBox="0 0 36 42" fill="none" xmlns="http://www.w3.org/2000/svg" xmlns:xlink="http://www.w3.org/1999/xlink">
<path d="M35.242,12.9C33.142,3.66 25.082,-0.5 18.002,-0.5L17.982,-0.5C10.922,-0.5 2.842,3.64 0.742,12.88C-1.598,23.2 4.722,31.94 10.442,37.44C12.469,39.402 15.18,40.5 18.002,40.5C20.722,40.5 23.442,39.48 25.542,37.44C31.262,31.94 37.582,23.22 35.242,12.9ZM18.002,22.92C17.175,22.92 16.355,22.757 15.591,22.44C14.827,22.124 14.132,21.66 13.547,21.075C12.962,20.49 12.498,19.795 12.182,19.031C11.865,18.267 11.702,17.447 11.702,16.62C11.702,15.793 11.865,14.973 12.182,14.209C12.498,13.445 12.962,12.75 13.547,12.165C14.132,11.58 14.827,11.116 15.591,10.8C16.355,10.483 17.175,10.32 18.002,10.32C19.673,10.32 21.275,10.984 22.457,12.165C23.638,13.347 24.302,14.949 24.302,16.62C24.302,18.291 23.638,19.893 22.457,21.075C21.275,22.256 19.673,22.92 18.002,22.92Z" fill="#024089"/>
</svg>
